<svg preserveAspectRatio="none" width="100%" height="100%" overflow="visible" style="display: block;" viewBox="0 0 12 10" fill="none" xmlns="http://www.w3.org/2000/svg">
<path id="Vector" d="M11.6375 5.13373L7.1375 9.63373C7.10303 9.6682 7.0621 9.69555 7.01706 9.7142C6.97202 9.73286 6.92375 9.74246 6.875 9.74246C6.82625 9.74246 6.77798 9.73286 6.73294 9.7142C6.6879 9.69555 6.64697 9.6682 6.6125 9.63373C6.57803 9.59926 6.55068 9.55833 6.53203 9.5133C6.51337 9.46826 6.50377 9.41998 6.50377 9.37123C6.50377 9.32248 6.51337 9.27421 6.53203 9.22917C6.55068 9.18413 6.57803 9.1432 6.6125 9.10873L10.4688 5.24623H0.375C0.275544 5.24623 0.180161 5.20672 0.109835 5.1364C0.0395088 5.06607 0 4.97069 0 4.87123C0 4.77177 0.0395088 4.67639 0.109835 4.60607C0.180161 4.53574 0.275544 4.49623 0.375 4.49623H10.4688L6.6125 0.633731C6.54288 0.564112 6.50377 0.469688 6.50377 0.371231C6.50377 0.272774 6.54288 0.17835 6.6125 0.108731C6.68212 0.0391117 6.77654 7.33559e-10 6.875 0C6.97346 -7.33559e-10 7.06788 0.0391117 7.1375 0.108731L11.6375 4.60873C11.673 4.64259 11.7014 4.68331 11.7207 4.72844C11.74 4.77356 11.75 4.82214 11.75 4.87123C11.75 4.92032 11.74 4.9689 11.7207 5.01403C11.7014 5.05915 11.673 5.09987 11.6375 5.13373Z" fill="var(--fill-0, #EFE7D2)"/>
</svg>
