<svg preserveAspectRatio="none" width="100%" height="100%" overflow="visible" style="display: block;" viewBox="0 0 15 15" fill="none" xmlns="http://www.w3.org/2000/svg">
<path id="Vector" d="M14.3438 7.17188C14.3438 5.75342 13.9231 4.36681 13.1351 3.1874C12.347 2.00799 11.2269 1.08875 9.91644 0.54593C8.60595 0.00310734 7.16392 -0.13892 5.77271 0.137809C4.38151 0.414537 3.1036 1.09759 2.1006 2.1006C1.09759 3.1036 0.414537 4.38151 0.137809 5.77271C-0.13892 7.16392 0.00310734 8.60595 0.54593 9.91644C1.08875 11.2269 2.00799 12.347 3.1874 13.1351C4.36681 13.9231 5.75342 14.3438 7.17188 14.3438C9.07341 14.3419 10.8965 13.5857 12.2411 12.2411C13.5857 10.8965 14.3419 9.07341 14.3438 7.17188ZM7.59375 13.4859V8.71875H9.42188C9.53377 8.71875 9.64107 8.67431 9.72019 8.59519C9.79931 8.51607 9.84375 8.40877 9.84375 8.29688C9.84375 8.18499 9.79931 8.07768 9.72019 7.99857C9.64107 7.91945 9.53377 7.875 9.42188 7.875H7.59375V6.04688C7.5956 5.71178 7.72953 5.39094 7.96649 5.15399C8.20344 4.91703 8.52428 4.7831 8.85938 4.78125H9.98438C10.0963 4.78125 10.2036 4.73681 10.2827 4.65769C10.3618 4.57857 10.4063 4.47127 10.4063 4.35938C10.4063 4.24749 10.3618 4.14018 10.2827 4.06107C10.2036 3.98195 10.0963 3.9375 9.98438 3.9375H8.85938C8.30051 3.93936 7.76506 4.16219 7.36987 4.55737C6.97469 4.95256 6.75186 5.48801 6.75 6.04688V7.875H4.92188C4.80999 7.875 4.70268 7.91945 4.62357 7.99857C4.54445 8.07768 4.5 8.18499 4.5 8.29688C4.5 8.40877 4.54445 8.51607 4.62357 8.59519C4.70268 8.67431 4.80999 8.71875 4.92188 8.71875H6.75V13.4859C5.11188 13.3765 3.58041 12.6347 2.47901 11.4171C1.37762 10.1996 0.792517 8.6017 0.847274 6.96084C0.90203 5.31997 1.59236 3.76462 2.77247 2.62323C3.95258 1.48184 5.5301 0.843769 7.17188 0.843769C8.81366 0.843769 10.3912 1.48184 11.5713 2.62323C12.7514 3.76462 13.4417 5.31997 13.4965 6.96084C13.5512 8.6017 12.9661 10.1996 11.8647 11.4171C10.7633 12.6347 9.23188 13.3765 7.59375 13.4859Z" fill="var(--fill-0, #EFE7D2)"/>
</svg>
