<svg preserveAspectRatio="none" width="100%" height="100%" overflow="visible" style="display: block;" viewBox="0 0 14 14" fill="none" xmlns="http://www.w3.org/2000/svg">
<path id="Vector" d="M6.89062 3.65625C6.25093 3.65625 5.62559 3.84594 5.0937 4.20134C4.56181 4.55674 4.14725 5.06188 3.90245 5.65288C3.65765 6.24389 3.5936 6.89421 3.7184 7.52162C3.8432 8.14903 4.15124 8.72534 4.60358 9.17767C5.05591 9.63001 5.63222 9.93805 6.25963 10.0629C6.88704 10.1877 7.53736 10.1236 8.12837 9.8788C8.71937 9.634 9.22451 9.21944 9.57991 8.68755C9.93531 8.15566 10.125 7.53032 10.125 6.89062C10.125 6.03282 9.78424 5.21014 9.17767 4.60358C8.57111 3.99701 7.74843 3.65625 6.89062 3.65625ZM6.89062 9.28125C6.4178 9.28125 5.9556 9.14104 5.56246 8.87836C5.16933 8.61567 4.86292 8.24231 4.68198 7.80548C4.50103 7.36865 4.45369 6.88797 4.54593 6.42424C4.63818 5.9605 4.86586 5.53453 5.2002 5.2002C5.53453 4.86586 5.9605 4.63818 6.42424 4.54593C6.88797 4.45369 7.36865 4.50103 7.80548 4.68198C8.24231 4.86292 8.61567 5.16933 8.87836 5.56246C9.14104 5.9556 9.28125 6.4178 9.28125 6.89062C9.2794 7.52409 9.02693 8.13107 8.579 8.579C8.13107 9.02693 7.52409 9.2794 6.89062 9.28125ZM9.98438 0H3.79688C2.78988 0 1.82413 0.400027 1.11208 1.11208C0.400027 1.82413 0 2.78988 0 3.79688V9.98438C0 10.9914 0.400027 11.9571 1.11208 12.6692C1.82413 13.3812 2.78988 13.7812 3.79688 13.7812H9.98438C10.9914 13.7812 11.9571 13.3812 12.6692 12.6692C13.3812 11.9571 13.7812 10.9914 13.7812 9.98438V3.79688C13.7812 2.78988 13.3812 1.82413 12.6692 1.11208C11.9571 0.400027 10.9914 0 9.98438 0ZM12.9375 9.98438C12.9375 10.7676 12.6264 11.5187 12.0725 12.0725C11.5187 12.6264 10.7676 12.9375 9.98438 12.9375H3.79688C3.01366 12.9375 2.26252 12.6264 1.7087 12.0725C1.15488 11.5187 0.84375 10.7676 0.84375 9.98438V3.79688C0.84375 3.01366 1.15488 2.26252 1.7087 1.7087C2.26252 1.15488 3.01366 0.84375 3.79688 0.84375H9.98438C10.7676 0.84375 11.5187 1.15488 12.0725 1.7087C12.6264 2.26252 12.9375 3.01366 12.9375 3.79688V9.98438ZM11.25 3.23438C11.25 3.37344 11.2088 3.50938 11.1315 3.62501C11.0542 3.74064 10.9444 3.83076 10.8159 3.88398C10.6875 3.9372 10.5461 3.95112 10.4097 3.92399C10.2733 3.89686 10.148 3.82989 10.0497 3.73156C9.95136 3.63323 9.88439 3.50794 9.85726 3.37155C9.83013 3.23516 9.84405 3.09378 9.89727 2.9653C9.95049 2.83682 10.0406 2.72701 10.1562 2.64975C10.2719 2.57249 10.4078 2.53125 10.5469 2.53125C10.7334 2.53125 10.9122 2.60533 11.0441 2.73719C11.1759 2.86905 11.25 3.04789 11.25 3.23438Z" fill="var(--fill-0, #EFE7D2)"/>
</svg>
