<svg preserveAspectRatio="none" width="100%" height="100%" overflow="visible" style="display: block;" viewBox="0 0 130 16" fill="none" xmlns="http://www.w3.org/2000/svg">
<g id="Mar y fuego 1" clip-path="url(#clip0_3283_265)">
<path id="Vector" d="M11.6339 15.4392H11.7416C11.8421 15.4392 11.9354 15.393 12.0216 15.3006C12.1077 15.2082 12.1795 15.1005 12.237 14.9773C12.3088 14.8542 12.359 14.7233 12.3877 14.5847C12.4165 14.4308 12.4308 14.2922 12.4308 14.1691V2.02227L6.8739 15.9241L1.59698 2.73814V14.1691C1.59698 14.2922 1.61133 14.4308 1.64006 14.5847C1.66878 14.7233 1.71186 14.8542 1.76929 14.9773C1.84109 15.1005 1.92006 15.2082 2.00621 15.3006C2.09236 15.393 2.19287 15.4392 2.30775 15.4392H2.41544V15.6701H0.067749V15.4392H0.175441C0.275953 15.4392 0.369287 15.393 0.455441 15.3006C0.541595 15.2082 0.61339 15.1005 0.670826 14.9773C0.728261 14.8542 0.771338 14.7233 0.800057 14.5847C0.828775 14.4308 0.843134 14.2922 0.843134 14.1691V1.86062C0.843134 1.75285 0.828775 1.62969 0.800057 1.49113C0.771338 1.35257 0.728261 1.22171 0.670826 1.09855C0.61339 0.975392 0.541595 0.875323 0.455441 0.798346C0.369287 0.705975 0.275953 0.659789 0.175441 0.659789H0.067749V0.428863H2.26467L7.2616 13.0606L12.2585 0.428863H14.6924V0.659789H14.5847C14.4698 0.659789 14.3693 0.705975 14.2831 0.798346C14.197 0.875323 14.118 0.975392 14.0462 1.09855C13.9888 1.22171 13.9457 1.35257 13.917 1.49113C13.8883 1.62969 13.8739 1.75285 13.8739 1.86062V14.1691C13.8739 14.2922 13.8883 14.4308 13.917 14.5847C13.9457 14.7233 13.9888 14.8542 14.0462 14.9773C14.118 15.1005 14.197 15.2082 14.2831 15.3006C14.3693 15.393 14.4698 15.4392 14.5847 15.4392H14.6924V15.6701H11.6339V15.4392ZM25.4782 15.4392H25.5859C25.9305 15.4392 26.1028 15.2698 26.1028 14.9311C26.1028 14.808 26.0813 14.6771 26.0382 14.5386L24.0997 8.92701H20.3305L18.4567 14.4462C18.4136 14.5694 18.3921 14.6848 18.3921 14.7926C18.3921 14.9927 18.4424 15.1544 18.5428 15.2775C18.6433 15.3853 18.751 15.4392 18.8659 15.4392H18.9736V15.6701H16.5828V15.4392H16.6905C16.8771 15.4392 17.0567 15.3237 17.229 15.0928C17.4156 14.8465 17.5664 14.5616 17.6813 14.2383L22.6136 0.151749L27.4382 14.0998C27.5387 14.4077 27.6751 14.7079 27.8474 15.0004C28.0341 15.2929 28.271 15.4392 28.5582 15.4392H28.6659V15.6701H25.4782V15.4392ZM20.5459 8.14185H23.8628L22.2044 3.31546L20.5459 8.14185ZM33.3456 15.4392H33.4533V15.6701H30.4164V15.4392H30.5241C30.6247 15.4392 30.7179 15.393 30.8041 15.3006C30.8902 15.2082 30.9621 15.1005 31.0194 14.9773C31.0913 14.8542 31.1416 14.7233 31.1702 14.5847C31.199 14.4308 31.2133 14.2922 31.2133 14.1691V1.86062C31.2133 1.75285 31.199 1.62969 31.1702 1.49113C31.1416 1.35257 31.0913 1.22171 31.0194 1.09855C30.9621 0.975392 30.8902 0.875323 30.8041 0.798346C30.7179 0.705975 30.6247 0.659789 30.5241 0.659789H30.4164V0.428863H34.1641C35.6001 0.428863 36.7056 0.729069 37.481 1.32948C38.2708 1.92989 38.6656 2.81512 38.6656 3.98515C38.6656 4.57017 38.5724 5.0859 38.3856 5.53237C38.2133 5.96343 37.9764 6.34062 37.6748 6.66392C37.3733 6.97182 37.0144 7.22584 36.5979 7.42598C36.1959 7.61072 35.7651 7.74928 35.3056 7.84165L36.8564 10.3819C37.2297 10.9977 37.6102 11.6058 37.9979 12.2062C38.3856 12.7912 38.7662 13.3993 39.1394 14.0305C39.2401 14.1845 39.3478 14.3461 39.4625 14.5155C39.5918 14.6848 39.721 14.8388 39.8502 14.9773C39.9939 15.1159 40.1374 15.2313 40.281 15.3237C40.439 15.4007 40.597 15.4392 40.7548 15.4392V15.6701H39.8287C39.2544 15.6701 38.7805 15.5238 38.4071 15.2313C38.0482 14.9234 37.7467 14.5694 37.5025 14.1691C36.8564 13.153 36.2102 12.1215 35.5641 11.0746C34.9324 10.0278 34.3005 8.99629 33.6687 7.9802C33.5108 7.96481 33.3385 7.94941 33.1517 7.93402C32.9794 7.90322 32.8144 7.87244 32.6564 7.84165V14.1691C32.6564 14.2922 32.6708 14.4308 32.6994 14.5847C32.7282 14.7233 32.7713 14.8542 32.8287 14.9773C32.9005 15.1005 32.9724 15.2082 33.0441 15.3006C33.1302 15.393 33.2308 15.4392 33.3456 15.4392ZM32.6564 1.21402V7.07958H32.7641C32.879 7.09497 33.0585 7.11038 33.3025 7.12577C33.561 7.12577 33.877 7.12577 34.2502 7.12577C34.5518 7.12577 34.8677 7.07959 35.1979 6.98721C35.5425 6.87945 35.8585 6.7101 36.1456 6.47917C36.4471 6.23285 36.6913 5.91724 36.8779 5.53237C37.079 5.14749 37.1794 4.66255 37.1794 4.07752C37.1794 3.4925 37.0717 3.01526 36.8564 2.64577C36.6554 2.27629 36.3682 1.98378 35.9948 1.76824C35.6359 1.55271 35.1979 1.40646 34.681 1.32948C34.1641 1.25251 33.597 1.21402 32.9794 1.21402H32.6564ZM47.6614 0.428863H50.6337V0.659789C50.5333 0.675186 50.4399 0.721371 50.3538 0.798346C50.2676 0.875323 50.2245 0.990787 50.2245 1.14474C50.2245 1.22172 50.2461 1.30639 50.2891 1.39876L53.5199 7.47216L56.6214 1.72206C56.6788 1.5989 56.7148 1.50653 56.7291 1.44494C56.7579 1.38336 56.7722 1.30639 56.7722 1.21402C56.7434 0.967694 56.6573 0.813742 56.5137 0.752162C56.3845 0.69058 56.3056 0.659789 56.2768 0.659789V0.428863H58.5814V0.659789C58.3661 0.659789 58.1434 0.806044 57.9138 1.09855C57.6984 1.37567 57.5118 1.66048 57.3538 1.95299L53.9938 8.18804V14.1691C53.9938 14.2922 54.0081 14.4231 54.0368 14.5616C54.0799 14.7002 54.1302 14.8388 54.1876 14.9773C54.245 15.1005 54.3168 15.2082 54.403 15.3006C54.4891 15.393 54.5896 15.4392 54.7045 15.4392H54.8122V15.6701H51.7322V15.4392H51.8399C51.9548 15.4392 52.0553 15.4007 52.1414 15.3237C52.2276 15.2313 52.2994 15.1236 52.3568 15.0004C52.4287 14.8619 52.4788 14.7233 52.5076 14.5847C52.5364 14.4308 52.5507 14.2922 52.5507 14.1691V8.39587L49.083 2.02227C49.0111 1.8991 48.925 1.76054 48.8245 1.6066C48.7241 1.45264 48.6164 1.30639 48.5014 1.16783C48.3865 1.02928 48.2645 0.913812 48.1353 0.821441C48.0061 0.713673 47.8841 0.659789 47.7691 0.659789H47.6614V0.428863ZM69.4782 15.4392H69.5859V15.6701H66.5059V15.4392H66.6136C66.7284 15.4392 66.829 15.4007 66.9151 15.3237C67.0013 15.2313 67.073 15.1236 67.1305 15.0004C67.2022 14.8772 67.2525 14.7464 67.2813 14.6078C67.3099 14.4693 67.3244 14.3384 67.3244 14.2153V1.86062C67.3244 1.75285 67.3099 1.62969 67.2813 1.49113C67.2525 1.35257 67.2094 1.22171 67.1521 1.09855C67.0945 0.975392 67.0156 0.875323 66.9151 0.798346C66.829 0.705975 66.7284 0.659789 66.6136 0.659789H66.5059V0.428863H74.7767V2.57649H74.5613C74.5613 2.2224 74.4464 1.9145 74.2167 1.65278C74.0013 1.37567 73.6567 1.23711 73.1828 1.23711H68.7674V7.07958H72.3428C72.673 7.07958 72.9459 6.97182 73.1613 6.75629C73.391 6.54075 73.5059 6.28673 73.5059 5.99422H73.7213V8.88082H73.5059C73.5059 8.60371 73.3982 8.36508 73.1828 8.16495C72.9674 7.96481 72.6874 7.86474 72.3428 7.86474H68.7674V14.2153C68.7674 14.3384 68.7818 14.4693 68.8105 14.6078C68.8391 14.7464 68.8822 14.8772 68.9398 15.0004C69.0114 15.1236 69.0905 15.2313 69.1767 15.3237C69.2628 15.4007 69.3633 15.4392 69.4782 15.4392ZM76.8527 0.428863H79.9111V0.659789H79.8034C79.6887 0.659789 79.5881 0.705975 79.5019 0.798346C79.4158 0.875323 79.3368 0.975392 79.265 1.09855C79.2076 1.22171 79.1645 1.35257 79.1358 1.49113C79.1071 1.62969 79.0927 1.75285 79.0927 1.86062V10.9823C79.0927 11.5827 79.1502 12.1369 79.265 12.6449C79.3799 13.153 79.5738 13.5918 79.8465 13.9612C80.1194 14.3307 80.4784 14.6232 80.9234 14.8388C81.3687 15.0389 81.9142 15.139 82.5604 15.139C83.2784 15.139 83.8527 15.0158 84.2834 14.7695C84.7142 14.5232 85.0445 14.2076 85.2742 13.8227C85.5041 13.4224 85.6548 12.9759 85.7265 12.4833C85.7984 11.9906 85.8342 11.5057 85.8342 11.0285V1.86062C85.8342 1.75285 85.8199 1.62969 85.7911 1.49113C85.7625 1.35257 85.7122 1.22171 85.6404 1.09855C85.583 0.975392 85.5111 0.875323 85.425 0.798346C85.3388 0.705975 85.2456 0.659789 85.145 0.659789H85.0373V0.428863H87.385V0.659789H87.2773C87.1625 0.659789 87.0619 0.705975 86.9757 0.798346C86.9041 0.875323 86.8322 0.975392 86.7604 1.09855C86.703 1.22171 86.6599 1.35257 86.6311 1.49113C86.6025 1.62969 86.5881 1.75285 86.5881 1.86062V10.9592C86.5881 11.9599 86.4733 12.7835 86.2434 13.4301C86.0137 14.0613 85.6979 14.5616 85.2958 14.9311C84.8938 15.3006 84.4199 15.5546 83.8742 15.6932C83.343 15.8318 82.7758 15.901 82.1727 15.901C81.5265 15.901 80.9234 15.824 80.3634 15.6701C79.8179 15.5315 79.3441 15.2775 78.9419 14.908C78.5399 14.5386 78.2241 14.0382 77.9942 13.407C77.7645 12.7604 77.6496 11.9522 77.6496 10.9823V1.86062C77.6496 1.75285 77.6353 1.62969 77.6065 1.49113C77.5779 1.35257 77.5276 1.22171 77.4558 1.09855C77.3984 0.975392 77.3265 0.875323 77.2404 0.798346C77.1542 0.705975 77.061 0.659789 76.9604 0.659789H76.8527V0.428863ZM89.8924 15.4392H90.0001C90.115 15.4392 90.2154 15.4007 90.3016 15.3237C90.3878 15.2313 90.4596 15.1236 90.517 15.0004C90.5888 14.8772 90.639 14.7464 90.6678 14.6078C90.7108 14.4693 90.7324 14.3384 90.7324 14.2153V1.86062C90.7324 1.75285 90.7108 1.62969 90.6678 1.49113C90.639 1.35257 90.5888 1.22171 90.517 1.09855C90.4596 0.975392 90.3878 0.875323 90.3016 0.798346C90.2154 0.705975 90.115 0.659789 90.0001 0.659789H89.8924V0.428863H98.1847V2.57649H97.9693C97.9405 2.2224 97.8113 1.9145 97.5816 1.65278C97.3519 1.37567 96.9928 1.23711 96.5047 1.23711H92.1754V7.07958H95.7508C96.0811 7.07958 96.3539 6.97182 96.5693 6.75629C96.799 6.54075 96.9139 6.28673 96.9139 5.99422H97.1293V8.88082H96.9139C96.9139 8.60371 96.8062 8.36508 96.5908 8.16495C96.3754 7.96481 96.0954 7.86474 95.7508 7.86474H92.1754V14.8619H96.8924C97.1651 14.8619 97.4021 14.7926 97.6031 14.654C97.8042 14.5155 97.9693 14.3538 98.0985 14.1691C98.2421 13.9689 98.3427 13.7611 98.4001 13.5456C98.4719 13.3146 98.5078 13.1222 98.5078 12.9682H98.7231V15.6701H89.8924V15.4392ZM110.069 7.63381H113.149V7.86474H113.041C112.927 7.86474 112.826 7.91093 112.74 8.0033C112.654 8.08028 112.582 8.18034 112.525 8.3035C112.467 8.42667 112.417 8.55752 112.374 8.69608C112.345 8.83464 112.331 8.9578 112.331 9.06556V15.2544C112.072 15.3622 111.778 15.4546 111.448 15.5315C111.117 15.6085 110.773 15.6701 110.414 15.7163C110.055 15.7779 109.689 15.824 109.315 15.8548C108.942 15.8856 108.597 15.901 108.281 15.901C106.989 15.901 105.862 15.6701 104.9 15.2082C103.938 14.7464 103.141 14.146 102.509 13.407C101.877 12.6526 101.404 11.8059 101.088 10.8668C100.786 9.9277 100.635 8.9809 100.635 8.02639C100.635 7.07188 100.786 6.12508 101.088 5.18598C101.404 4.24688 101.877 3.40783 102.509 2.66886C103.155 1.92989 103.959 1.33718 104.921 0.890717C105.898 0.428863 107.054 0.197935 108.389 0.197935C108.892 0.197935 109.358 0.244121 109.789 0.336492C110.22 0.428862 110.601 0.513536 110.931 0.590511C111.117 0.636697 111.275 0.682884 111.405 0.729069C111.548 0.759859 111.67 0.775253 111.771 0.775253H111.965V3.22309H111.749C111.663 2.74585 111.491 2.36095 111.232 2.06845C110.988 1.77595 110.701 1.55271 110.371 1.39876C110.041 1.24481 109.689 1.14474 109.315 1.09855C108.956 1.03697 108.619 1.00618 108.303 1.00618C107.226 1.00618 106.293 1.21402 105.503 1.62969C104.713 2.02997 104.067 2.5534 103.565 3.2C103.062 3.8466 102.689 4.57786 102.445 5.39381C102.201 6.19436 102.078 6.99492 102.078 7.79546C102.078 8.68838 102.236 9.57361 102.552 10.4511C102.868 11.3133 103.313 12.0907 103.888 12.7835C104.462 13.4609 105.151 14.0151 105.955 14.4462C106.774 14.8619 107.678 15.0697 108.669 15.0697C108.942 15.0697 109.279 15.0389 109.681 14.9773C110.084 14.9003 110.486 14.7387 110.888 14.4924V9.06556C110.888 8.9578 110.873 8.83464 110.845 8.69608C110.816 8.55752 110.766 8.42667 110.694 8.3035C110.636 8.18034 110.565 8.08028 110.478 8.0033C110.392 7.91093 110.292 7.86474 110.177 7.86474H110.069V7.63381ZM122.683 0.197935C123.803 0.197935 124.808 0.413467 125.699 0.844533C126.589 1.2602 127.343 1.82982 127.96 2.5534C128.592 3.26157 129.073 4.09291 129.403 5.04742C129.748 5.98652 129.92 6.97182 129.92 8.0033C129.92 9.15794 129.719 10.2202 129.317 11.1901C128.929 12.16 128.391 12.9913 127.702 13.6841C127.013 14.3769 126.208 14.9234 125.289 15.3237C124.385 15.7086 123.416 15.901 122.382 15.901C121.276 15.901 120.278 15.6855 119.388 15.2544C118.512 14.8234 117.765 14.2537 117.148 13.5456C116.545 12.8374 116.078 12.0214 115.748 11.0977C115.418 10.174 115.253 9.21182 115.253 8.21113C115.253 7.22584 115.418 6.25595 115.748 5.30144C116.078 4.33154 116.559 3.46941 117.191 2.71505C117.837 1.96069 118.62 1.35257 119.539 0.890717C120.458 0.428863 121.506 0.197935 122.683 0.197935ZM122.662 15.0928C123.624 15.0466 124.464 14.8157 125.182 14.4C125.914 13.9689 126.524 13.4301 127.013 12.7835C127.501 12.1215 127.86 11.3979 128.089 10.6128C128.334 9.82763 128.456 9.05017 128.456 8.28041C128.456 7.43368 128.312 6.57925 128.025 5.71711C127.738 4.85497 127.328 4.07752 126.797 3.38474C126.266 2.67657 125.627 2.10693 124.88 1.67587C124.148 1.22941 123.322 1.00618 122.403 1.00618C121.513 1.00618 120.716 1.22171 120.013 1.65278C119.309 2.06845 118.706 2.60729 118.203 3.26928C117.715 3.93126 117.342 4.67023 117.083 5.48618C116.825 6.30213 116.696 7.10268 116.696 7.88783C116.696 8.73456 116.846 9.589 117.148 10.4511C117.449 11.2979 117.866 12.0676 118.397 12.7604C118.928 13.4532 119.553 14.0151 120.271 14.4462C121.003 14.8772 121.8 15.0928 122.662 15.0928Z" fill="var(--fill-0, #EFE7D2)"/>
</g>
<defs>
<clipPath id="clip0_3283_265">
<rect width="130" height="16" fill="white"/>
</clipPath>
</defs>
</svg>
