<svg preserveAspectRatio="none" width="100%" height="100%" overflow="visible" style="display: block;" viewBox="0 0 16 14" fill="none" xmlns="http://www.w3.org/2000/svg">
<path id="Vector" d="M15.051 1.94769C15.0192 1.87113 14.9656 1.80562 14.8968 1.75936C14.8281 1.71309 14.7472 1.68811 14.6643 1.68753H12.4424C12.1678 1.18313 11.7638 0.760943 11.272 0.464368C10.7802 0.167793 10.2183 0.0075239 9.64398 3.08737e-05C8.78113 -0.00372034 7.95193 0.334498 7.33786 0.940665C6.72378 1.54683 6.37485 2.37158 6.36742 3.23441V3.84612C3.38617 3.13597 0.925232 0.710187 0.897107 0.689093C0.8429 0.635582 0.775218 0.597745 0.701242 0.579597C0.627266 0.561449 0.549757 0.563668 0.476941 0.586018C0.404124 0.608368 0.338717 0.650014 0.28766 0.706538C0.236603 0.763062 0.201802 0.832355 0.18695 0.907062C-0.424769 4.25394 0.5807 6.48988 1.52992 7.77659C2.03336 8.46555 2.65179 9.06257 3.35804 9.54144C2.2682 10.8633 0.475232 11.5524 0.454138 11.5594C0.394233 11.5815 0.340226 11.617 0.296322 11.6634C0.252419 11.7097 0.219802 11.7656 0.201013 11.8266C0.181061 11.8861 0.175122 11.9495 0.183659 12.0116C0.192196 12.0738 0.214979 12.1332 0.250231 12.1852C0.320544 12.2907 1.00961 13.2188 3.41429 13.2188C8.31508 13.2188 12.4143 9.42894 12.808 4.56331L14.9596 2.40472C15.0206 2.34758 15.0622 2.2728 15.0786 2.19086C15.095 2.10891 15.0853 2.02389 15.051 1.94769ZM12.0979 4.07816C12.0247 4.15112 11.982 4.24913 11.9784 4.35237C11.6901 8.85237 7.92836 12.375 3.41429 12.375C2.43695 12.375 1.81117 12.2063 1.43851 12.0375C2.23304 11.6367 3.53383 10.8493 4.32836 9.65394C4.36001 9.60438 4.38131 9.54894 4.39098 9.49094C4.40064 9.43294 4.39848 9.37358 4.38461 9.31644C4.36962 9.25797 4.34245 9.20332 4.30489 9.15606C4.26733 9.10881 4.22022 9.07002 4.16664 9.04222C4.15258 9.04222 3.09789 8.49378 2.18383 7.24222C1.09398 5.75159 0.665075 3.9305 0.904138 1.82816C1.9307 2.70003 4.14554 4.34534 6.71898 4.77425C6.77955 4.78575 6.84192 4.78361 6.90156 4.76798C6.9612 4.75235 7.0166 4.72363 7.06374 4.68389C7.11088 4.64416 7.14858 4.59442 7.17408 4.53829C7.19958 4.48216 7.21225 4.42105 7.21117 4.35941V3.23441C7.21674 2.59722 7.47425 1.98814 7.92745 1.5402C8.38066 1.09227 8.99271 0.841899 9.62992 0.843781C10.0903 0.850429 10.5392 0.98913 10.9231 1.2434C11.307 1.49767 11.6098 1.85682 11.7955 2.27816C11.8276 2.35395 11.8815 2.41849 11.9504 2.46356C12.0193 2.50864 12.1 2.53221 12.1823 2.53128H13.6448L12.0979 4.07816Z" fill="var(--fill-0, #EFE7D2)"/>
</svg>
